<svg version="1" xmlns="http://www.w3.org/2000/svg" width="256" height="256" viewBox="0 0 192.000000 192.000000"><path d="M17.5 18.2c-.3.7-.4 36.2-.3 78.8l.3 77.5 77.4.3c56.3.1 77.7-.1 78.7-.9 1.9-1.6 2.1-153.8.2-155.7-1.8-1.8-155.7-1.7-156.3 0zm63.6 24.7c1.3 1 5.8 6.6 9.9 12.4 4.1 5.9 7.9 10.6 8.3 10.7.4 0 3-1.8 5.7-3.9 7.1-5.6 12.6-7.5 20.3-6.9 16.1 1.3 27.6 14.2 26.5 29.8-1.3 17.8-19.1 35.6-55.3 55.3-15.4 8.4-23.3 12.2-23.9 11.6-.9-.9-33.6-87-33.6-88.4 0-2.1 4.8-5.3 20.5-13.7 18.6-10 18-9.8 21.6-6.9zM15.8 177.9c1.3 1.1 4.2 2.3 6.5 2.6 2.3.3 37.2.5 77.4.3l73.2-.3 2.3-2.4c2.3-2.3 2.3-2.3.1-1.2-3 1.5-156.5 1.6-159.6 0-2.1-1-2.1-1 .1 1z"/></svg>